<?xml version="1.0" encoding="UTF-8" standalone="no"?>
<!-- Created with Inkscape (http://www.inkscape.org/) -->

<svg
   xmlns:dc="http://purl.org/dc/elements/1.1/"
   xmlns:cc="http://creativecommons.org/ns#"
   xmlns:rdf="http://www.w3.org/1999/02/22-rdf-syntax-ns#"
   xmlns:svg="http://www.w3.org/2000/svg"
   xmlns="http://www.w3.org/2000/svg"
   xmlns:sodipodi="http://sodipodi.sourceforge.net/DTD/sodipodi-0.dtd"
   xmlns:inkscape="http://www.inkscape.org/namespaces/inkscape"
   width="48"
   height="48"
   viewBox="0 0 48 48"
   id="svg2"
   version="1.1"
   inkscape:version="0.91 r13725"
   sodipodi:docname="BrokenBranchLogo.svg"
   inkscape:export-filename="/home/dylan/workspace/TheBrokennessClub/app/assets/images/BrokenBranchLogo.png"
   inkscape:export-xdpi="500"
   inkscape:export-ydpi="500">
  <defs
     id="defs4" />
  <sodipodi:namedview
     id="base"
     pagecolor="#ffffff"
     bordercolor="#666666"
     borderopacity="1.0"
     inkscape:pageopacity="0.0"
     inkscape:pageshadow="2"
     inkscape:zoom="11.313709"
     inkscape:cx="25.489817"
     inkscape:cy="20.078622"
     inkscape:document-units="px"
     inkscape:current-layer="layer1"
     showgrid="false"
     units="px"
     inkscape:snap-global="true"
     inkscape:window-width="1855"
     inkscape:window-height="1056"
     inkscape:window-x="1985"
     inkscape:window-y="24"
     inkscape:window-maximized="1" />
  <metadata
     id="metadata7">
    <rdf:RDF>
      <cc:Work
         rdf:about="">
        <dc:format>image/svg+xml</dc:format>
        <dc:type
           rdf:resource="http://purl.org/dc/dcmitype/StillImage" />
        <dc:title />
      </cc:Work>
    </rdf:RDF>
  </metadata>
  <g
     inkscape:label="Layer 1"
     inkscape:groupmode="layer"
     id="layer1"
     transform="translate(0,-1004.3622)">
    <path
       style="fill:#000000"
       d="m 17.029381,1033.7885 -0.243412,0.012 0.387066,-1.0429 -0.698613,-0.015 0.148801,-0.7517 -1.131958,0.2438 0.224118,-0.8745 -0.683419,-0.031 c -0.552707,0.4553 -1.145279,0.9799 -1.726851,1.459 -0.777042,0.6402 -1.569159,1.2635 -2.355852,1.8918 -1.6624082,1.3274 -2.067123,1.8454 -4.9967716,3.9676 -2.921595,2.1161 -3.9488184,2.9753 -5.16212367,4.3066 l -0.6093486,0.6671 0.2201167,0.4612 c 0.3125807,0.6553 0.70393767,1.2118 1.24863147,1.7724 0.5234087,0.5381 1.6768147,1.4677 1.8803017,1.517 0.147303,0.036 0.2042991,-0.033 0.7702278,-1.0093 0.4100966,-0.7029 1.554751,-2.0786 2.3808704,-2.861 0.3475642,-0.3296 1.4000344,-1.2527 2.3405166,-2.0495 2.0615462,-1.7466 3.7055472,-3.5988 5.5760382,-5.3795 0.805413,-0.7668 1.538555,-1.4037 2.431645,-2.2837 z"
       id="path3384"
       inkscape:connector-curvature="0" />
    <path
       style="fill:#000000"
       d="m 45.484638,1008.5228 c -0.0277,-0.032 -0.146038,-0.014 -0.314657,0.026 -0.505657,0.141 -1.46953,0.5677 -1.842695,0.8476 -0.559558,0.4196 -1.019462,1.1305 -1.257642,1.9537 -0.284786,0.9844 -0.197582,1.659 0.260035,2.0278 0.126958,0.103 0.223373,0.2297 0.213407,0.2822 -0.01665,0.087 -0.808966,0.92 -0.889757,0.9363 -0.03809,0.011 -0.653246,-0.6266 -0.722949,-0.745 -0.02666,-0.045 0.03372,-0.1966 0.131899,-0.3402 0.261194,-0.3816 0.263243,-0.8613 0.01005,-1.5849 -0.245125,-0.7014 -0.538663,-1.1263 -1.03136,-1.4939 -0.334044,-0.2492 -1.211864,-0.6528 -1.354864,-0.627 -0.02478,0.02 0.08814,0.1827 0.249065,0.3976 0.38817,0.5207 0.470693,0.7834 0.442446,1.4158 -0.0475,1.0632 0.401871,1.9139 1.118917,2.1346 0.182114,0.055 0.326974,0.1862 0.596652,0.5342 0.195755,0.2531 0.358697,0.4732 0.36147,0.4912 0.0026,0.019 -0.154769,0.1284 -0.350212,0.246 -0.575246,0.344 -0.974803,0.8494 -1.545856,1.9506 -0.611566,1.1793 -1.049481,1.8268 -1.626942,2.4117 -0.631811,0.6397 -1.258744,1.0669 -3.007448,2.0431 -0.865196,0.4831 -2.186382,1.2293 -2.935829,1.6576 -2.035269,1.1625 -4.467923,2.3493 -8.193158,4.0036 -2.83252,1.4351 -5.008058,2.4198 -7.35009,3.4984 l 0.652954,0.2042 -0.439385,0.7885 1.156722,0.053 -0.3353,0.6891 0.671798,0.1922 -0.639851,0.91 0.238338,0.051 c 2.346045,-1.3449 4.931832,-2.892 6.326352,-3.4273 0.873114,-0.3343 1.796075,-0.7024 2.050075,-0.8211 0.253978,-0.1184 0.53587,-0.2332 0.625404,-0.2501 0.207778,-0.044 0.230613,0.089 0.218925,1.1366 -0.006,0.5415 0.03844,1.033 0.139829,1.637 0.13025,0.7749 0.161381,0.8924 0.327927,1.1062 0.437363,0.5633 1.014412,0.567 3.058202,0.017 0.780647,-0.2098 1.516076,-0.4004 1.629626,-0.4211 0.203765,-0.043 0.203656,-0.028 0.14549,0.1557 -0.0318,0.1067 -0.09382,0.4607 -0.139324,0.7909 -0.06588,0.4779 -0.113709,0.6256 -0.234403,0.7206 -0.08318,0.066 -0.246016,0.278 -0.360727,0.4706 -0.281858,0.4723 -0.326112,0.9207 -0.163926,1.6521 0.120002,0.5415 0.145106,0.5866 0.663513,1.2846 0.504344,0.6794 0.540749,0.7512 0.609378,1.1576 0.06419,0.3795 0.04074,0.7524 -0.07902,1.37 -0.04533,0.2399 0.17262,0.081 0.587356,-0.4403 0.496122,-0.6243 0.855112,-1.2697 0.99017,-1.7702 0.21218,-0.7861 0.14302,-1.7567 -0.186804,-2.5878 -0.321315,-0.8094 -0.709949,-1.2004 -1.284831,-1.2932 -0.391872,-0.064 -0.456891,-0.1729 -0.331412,-0.5766 0.03841,-0.123 0.09163,-0.3857 0.116737,-0.5831 0.02514,-0.1977 0.0669,-0.356 0.0932,-0.3657 0.08564,-0.026 0.631612,0.4744 0.897709,0.8035 0.148218,0.1838 0.341043,0.4215 0.430865,0.5237 0.133893,0.1568 0.185164,0.3155 0.292987,0.9044 0.125298,0.6846 0.142587,0.7281 0.417117,1.0777 0.350628,0.4462 1.043661,0.8962 1.63584,1.0789 0.242515,0.074 0.761608,0.1378 1.186214,0.1508 0.414151,0.014 0.897832,0.089 1.08126,0.1405 0.389038,0.1361 0.813769,0.4356 1.132873,0.8269 0.428378,0.5254 0.616051,0.7111 0.670409,0.6612 0.08991,-0.083 -0.284381,-2.0943 -0.490406,-2.6336 -0.420292,-1.1003 -1.39313,-2.0741 -2.586563,-2.5943 -0.834386,-0.3634 -1.203261,-0.4235 -1.85175,-0.3073 -0.505788,0.09 -0.555794,0.1089 -0.829559,0.3691 -0.160086,0.1531 -0.322472,0.2572 -0.363818,0.2446 -0.09232,-0.043 -0.358925,-0.3893 -0.596078,-0.7972 -0.102471,-0.1762 -0.265759,-0.3765 -0.366288,-0.4426 -0.203041,-0.1346 -0.254559,-0.2275 -0.103745,-0.2006 0.142408,0.029 0.490619,-0.1809 0.601024,-0.3605 0.107618,-0.175 0.474213,-0.4787 0.611405,-0.5045 0.04904,-0.021 0.18331,0.096 0.302195,0.238 0.370037,0.4398 1.055896,0.5617 2.08539,0.3659 1.10709,-0.2105 1.872844,-0.6277 2.477226,-1.3479 0.357325,-0.4259 0.955076,-1.5007 0.843256,-1.516 -0.03979,-0.019 -0.250979,0.1023 -0.467597,0.2421 -0.598512,0.3837 -1.140491,0.5082 -1.769188,0.4035 -0.925653,-0.1521 -1.192628,-0.1565 -1.793011,-0.01 -0.819099,0.1996 -1.369827,0.6241 -1.552654,1.2081 -0.03185,0.1007 -0.12844,0.2229 -0.220575,0.2647 -0.09246,0.043 -0.313494,0.1858 -0.487167,0.3207 -0.503002,0.3873 -0.627275,0.4146 -2.092736,0.44 -1.405799,0.022 -1.875251,-0.035 -2.205969,-0.2782 -0.39384,-0.2898 -0.478104,-0.7063 -0.469395,-2.3508 0.0026,-0.4882 -0.01346,-0.9941 -0.03546,-1.1262 -0.06813,-0.3943 -0.03773,-0.6538 0.09094,-0.778 0.06711,-0.065 0.448019,-0.2601 0.845449,-0.4303 0.397435,-0.1712 1.464917,-0.6799 2.371672,-1.1347 3.45742,-1.7343 3.963756,-1.8745 6.766753,-1.8722 0.552253,0 1.147419,0.022 1.327986,0.047 0.284936,0.043 0.326229,0.066 0.310704,0.1919 -0.0099,0.08 0.0024,0.3438 0.02398,0.5891 0.03186,0.3608 0.01036,0.5121 -0.11464,0.7993 -0.355289,0.816 -0.0857,1.5578 0.82945,2.2628 0.553803,0.4261 0.715087,0.6904 0.788089,1.2951 0.02697,0.223 0.0732,0.4145 0.0977,0.4396 0.0674,0.048 0.412607,-0.7638 0.562782,-1.3201 0.117021,-0.4332 0.116463,-0.5127 0.005,-1.1379 -0.135476,-0.7592 -0.34125,-1.1784 -0.777423,-1.5806 -0.346919,-0.3185 -0.575932,-0.4167 -0.924992,-0.39 l -0.304544,0.023 -0.01036,-0.3307 c -0.0075,-0.1835 0.02312,-0.4542 0.0732,-0.5993 l 0.09327,-0.2674 0.117099,0.1254 c 0.06449,0.069 0.325687,0.2773 0.581828,0.466 0.392484,0.2872 0.490195,0.392 0.597343,0.6657 0.426491,1.0891 1.421213,1.4867 2.936641,1.1629 0.814437,-0.1745 1.096061,-0.1233 1.79114,0.3445 0.430092,0.2916 0.470153,0.3047 0.44517,0.162 -0.05478,-0.3179 -0.48284,-1.1985 -0.807024,-1.6581 -0.25801,-0.3656 -0.443491,-0.544 -0.818597,-0.7898 -1.297712,-0.8481 -2.939911,-0.843 -3.475427,0.014 -0.06797,0.1077 -0.142146,0.1958 -0.169503,0.205 -0.02631,0 -0.260543,-0.1723 -0.519787,-0.399 -0.539632,-0.4721 -0.538641,-0.4292 -0.01713,-1.034 0.258971,-0.3005 0.274048,-0.3065 0.387948,-0.2109 0.262039,0.2284 0.453351,0.2706 0.910032,0.1848 1.247604,-0.2368 2.108153,-1.0319 2.473402,-2.2786 0.101178,-0.3451 0.169592,-0.6457 0.147201,-0.6528 -0.02181,0 -0.114444,0.061 -0.213256,0.1712 -0.465736,0.5174 -0.636038,0.605 -1.449232,0.7394 -1.210637,0.1997 -1.790625,0.5839 -1.986933,1.3122 -0.0852,0.3159 -0.165983,0.4367 -0.53247,0.7971 -0.363345,0.3563 -0.466889,0.4294 -0.647607,0.4342 -0.11833,-0.012 -0.726471,-0.1414 -1.35404,-0.3188 -0.627564,-0.1767 -1.348368,-0.3538 -1.602074,-0.3906 -1.190627,-0.1784 -2.247459,-0.037 -3.635394,0.499 -0.910452,0.35 -1.192269,0.4222 -1.208557,0.3315 -0.0318,-0.1837 2.041411,-1.7944 3.434714,-2.67 1.893031,-1.1896 2.410594,-1.7622 3.276746,-3.6297 0.495949,-1.0697 1.015343,-1.8881 1.495799,-2.3561 l 0.310723,-0.3029 0.386253,0.1228 c 0.212745,0.065 0.556317,0.1265 0.76617,0.1313 0.285081,-9e-4 0.46396,0.061 0.699009,0.1949 0.712251,0.4302 1.607241,0.1595 2.320117,-0.6942 0.384066,-0.4621 0.830449,-0.659 1.46195,-0.6302 0.144583,-7e-4 0.273858,-10e-4 0.286855,-0.023 0.04333,-0.063 -0.408581,-0.358 -0.904929,-0.5922 -1.041523,-0.4902 -2.167396,-0.3544 -3.049541,0.3706 -0.341401,0.2801 -0.462517,0.502 -0.490044,0.8837 -0.01791,0.2524 -0.04752,0.2949 -0.196812,0.3219 -0.211622,0.043 -1.024132,-0.186 -0.989417,-0.2748 0.01442,-0.035 0.07332,-0.077 0.134609,-0.091 0.05999,-0.023 0.287486,-0.2313 0.500244,-0.492 0.356264,-0.4368 0.415595,-0.4818 0.743702,-0.572 1.081966,-0.2975 1.704179,-1.5152 1.470909,-2.8766 -0.113217,-0.661 0.06872,-1.2119 0.599333,-1.8072 0.179939,-0.2022 0.308541,-0.3889 0.28653,-0.4151 z"
       id="path3377"
       inkscape:connector-curvature="0" />
  </g>
</svg>
